<svg width="250" height="70" viewBox="0 0 250 70" fill="none" xmlns="http://www.w3.org/2000/svg">
<rect width="250" height="70" rx="10" fill="white"/>
<path fill-rule="evenodd" clip-rule="evenodd" d="M214.108 15.3811C215.008 14.3406 216.228 13.7559 217.5 13.7559C218.772 13.7559 219.992 14.3406 220.892 15.3811C221.792 16.4215 222.298 17.8328 222.298 19.3046V21.4061H212.703V19.3046C212.703 17.8328 213.208 16.4215 214.108 15.3811ZM208.591 21.4061V19.3046C208.591 16.5714 209.529 13.9505 211.2 12.0181C212.871 10.0858 215.137 9 217.5 9C219.863 9 222.129 10.0858 223.8 12.0181C225.471 13.9505 226.41 16.5717 226.41 19.3046V21.4061H231.207C231.905 21.4061 232.492 22.013 232.569 22.8158L234.891 46.8965C234.898 46.9615 234.906 47.0367 234.915 47.121C234.974 47.6369 235.069 48.4876 234.921 49.3077C234.608 51.041 233.465 52.4642 231.98 52.9415C231.31 53.1569 230.548 53.1328 230.084 53.1177C229.987 53.1148 229.903 53.1119 229.836 53.1119H205.164C205.097 53.1119 205.013 53.1148 204.916 53.1177C204.452 53.1328 203.69 53.1569 203.02 52.9415C201.535 52.4642 200.392 51.0413 200.079 49.3077C199.931 48.4876 200.026 47.6369 200.084 47.121C200.094 47.0367 200.102 46.9615 200.109 46.8965L202.431 22.8158C202.508 22.013 203.095 21.4061 203.793 21.4061H208.591Z" fill="#FA8F00"/>
<path d="M211.408 45.4337C210.336 45.4337 209.376 45.1537 208.528 44.5937C207.696 44.0177 207.032 43.2337 206.536 42.2417C206.04 41.2337 205.792 40.0977 205.792 38.8337C205.792 37.5377 206.04 36.3937 206.536 35.4017C207.032 34.4097 207.712 33.6337 208.576 33.0737C209.44 32.4977 210.424 32.2097 211.528 32.2097C212.136 32.2097 212.688 32.2977 213.184 32.4737C213.696 32.6497 214.144 32.8977 214.528 33.2177C214.912 33.5217 215.24 33.8817 215.512 34.2977C215.784 34.6977 215.984 35.1297 216.112 35.5937L215.32 35.4977V32.4737H219.136V45.2177H215.248V42.1457L216.112 42.1217C215.984 42.5697 215.776 42.9937 215.488 43.3937C215.2 43.7937 214.848 44.1457 214.432 44.4497C214.016 44.7537 213.552 44.9937 213.04 45.1697C212.528 45.3457 211.984 45.4337 211.408 45.4337ZM212.464 42.1937C213.056 42.1937 213.568 42.0577 214 41.7857C214.432 41.5137 214.768 41.1297 215.008 40.6337C215.248 40.1217 215.368 39.5217 215.368 38.8337C215.368 38.1457 215.248 37.5537 215.008 37.0577C214.768 36.5457 214.432 36.1537 214 35.8817C213.568 35.5937 213.056 35.4497 212.464 35.4497C211.888 35.4497 211.384 35.5937 210.952 35.8817C210.536 36.1537 210.208 36.5457 209.968 37.0577C209.728 37.5537 209.608 38.1457 209.608 38.8337C209.608 39.5217 209.728 40.1217 209.968 40.6337C210.208 41.1297 210.536 41.5137 210.952 41.7857C211.384 42.0577 211.888 42.1937 212.464 42.1937ZM222.356 45.2177V32.4737H226.22V45.2177H222.356ZM222.38 31.0817L221.252 29.3296L225.548 25.9217L227.3 28.4416L222.38 31.0817Z" fill="white"/>
<path d="M27.24 49.6177C25.1333 49.6177 23.1867 49.271 21.4 48.5777C19.64 47.8577 18.1067 46.8577 16.8 45.5777C15.4933 44.271 14.48 42.7377 13.76 40.9777C13.0667 39.191 12.72 37.231 12.72 35.0977C12.72 33.0177 13.0933 31.0977 13.84 29.3377C14.5867 27.5777 15.6133 26.0577 16.92 24.7777C18.2533 23.471 19.8133 22.4577 21.6 21.7376C23.4133 21.0176 25.3867 20.6576 27.52 20.6576C28.8533 20.6576 30.16 20.831 31.44 21.1776C32.72 21.5243 33.9067 22.0443 35 22.7376C36.12 23.4043 37.08 24.2043 37.88 25.1376L33.72 29.8977C33.16 29.311 32.56 28.8043 31.92 28.3777C31.3067 27.9243 30.6267 27.5776 29.88 27.3376C29.1333 27.0976 28.3333 26.9776 27.48 26.9776C26.4133 26.9776 25.4 27.1776 24.44 27.5777C23.5067 27.951 22.68 28.4977 21.96 29.2177C21.2667 29.911 20.72 30.7643 20.32 31.7777C19.92 32.791 19.72 33.9243 19.72 35.1777C19.72 36.4043 19.92 37.5243 20.32 38.5377C20.72 39.5243 21.28 40.3777 22 41.0977C22.72 41.8177 23.5867 42.3643 24.6 42.7377C25.64 43.111 26.7867 43.2977 28.04 43.2977C28.8933 43.2977 29.7067 43.1777 30.48 42.9377C31.2533 42.6977 31.96 42.3777 32.6 41.9777C33.2667 41.551 33.8533 41.071 34.36 40.5377L37.64 45.7377C36.9733 46.4843 36.08 47.151 34.96 47.7377C33.8667 48.3243 32.64 48.791 31.28 49.1377C29.9467 49.4577 28.6 49.6177 27.24 49.6177ZM51.6134 49.6177C49.4001 49.6177 47.4268 49.1377 45.6934 48.1777C43.9868 47.2177 42.6268 45.911 41.6134 44.2577C40.6268 42.6043 40.1334 40.711 40.1334 38.5777C40.1334 36.4443 40.6268 34.551 41.6134 32.8977C42.6268 31.2443 43.9868 29.9377 45.6934 28.9776C47.4268 28.0176 49.4001 27.5376 51.6134 27.5376C53.8268 27.5376 55.7868 28.0176 57.4934 28.9776C59.2268 29.9377 60.5868 31.2443 61.5734 32.8977C62.5601 34.551 63.0534 36.4443 63.0534 38.5777C63.0534 40.711 62.5601 42.6043 61.5734 44.2577C60.5868 45.911 59.2268 47.2177 57.4934 48.1777C55.7868 49.1377 53.8268 49.6177 51.6134 49.6177ZM51.6134 44.0977C52.5734 44.0977 53.4268 43.8577 54.1734 43.3777C54.9201 42.8977 55.5068 42.2443 55.9334 41.4177C56.3601 40.591 56.5601 39.6443 56.5334 38.5777C56.5601 37.511 56.3601 36.5643 55.9334 35.7377C55.5068 34.8843 54.9201 34.2177 54.1734 33.7377C53.4268 33.2577 52.5734 33.0177 51.6134 33.0177C50.6534 33.0177 49.7868 33.2577 49.0134 33.7377C48.2668 34.2177 47.6801 34.8843 47.2534 35.7377C46.8268 36.5643 46.6268 37.511 46.6534 38.5777C46.6268 39.6443 46.8268 40.591 47.2534 41.4177C47.6801 42.2443 48.2668 42.8977 49.0134 43.3777C49.7868 43.8577 50.6534 44.0977 51.6134 44.0977ZM67.1984 49.2177V27.9777H73.2784L73.4784 31.8177L72.6384 31.8577C72.9584 31.1643 73.3584 30.551 73.8384 30.0177C74.3451 29.4843 74.9051 29.0443 75.5184 28.6977C76.1584 28.3243 76.8118 28.0443 77.4784 27.8576C78.1718 27.671 78.8651 27.5777 79.5584 27.5777C80.5984 27.5777 81.5451 27.7377 82.3984 28.0576C83.2518 28.3777 83.9984 28.8977 84.6384 29.6177C85.2784 30.311 85.7851 31.2577 86.1584 32.4577L85.1584 32.3777L85.4784 31.7377C85.8251 31.0977 86.2651 30.5243 86.7984 30.0177C87.3584 29.4843 87.9718 29.0443 88.6384 28.6977C89.3051 28.3243 89.9984 28.0443 90.7184 27.8576C91.4384 27.671 92.1318 27.5777 92.7984 27.5777C94.4784 27.5777 95.8784 27.911 96.9984 28.5777C98.1184 29.2177 98.9584 30.191 99.5184 31.4977C100.105 32.8043 100.398 34.391 100.398 36.2577V49.2177H93.9584V36.7777C93.9584 35.9243 93.8384 35.2177 93.5984 34.6577C93.3584 34.0977 92.9984 33.6843 92.5184 33.4177C92.0651 33.1243 91.4918 32.9777 90.7984 32.9777C90.2384 32.9777 89.7184 33.071 89.2384 33.2577C88.7851 33.4443 88.3851 33.6977 88.0384 34.0177C87.7184 34.3377 87.4651 34.711 87.2784 35.1377C87.0918 35.5643 86.9984 36.0443 86.9984 36.5777V49.2177H80.5584V36.7377C80.5584 35.9377 80.4384 35.2577 80.1984 34.6977C79.9584 34.1377 79.5984 33.711 79.1184 33.4177C78.6384 33.1243 78.0784 32.9777 77.4384 32.9777C76.8784 32.9777 76.3584 33.071 75.8784 33.2577C75.4251 33.4443 75.0251 33.6977 74.6784 34.0177C74.3584 34.3377 74.1051 34.711 73.9184 35.1377C73.7318 35.5643 73.6384 36.031 73.6384 36.5377V49.2177H67.1984ZM105.715 58.0177V27.9777H111.795L112.035 32.7377L110.835 32.3777C111.022 31.4977 111.475 30.6977 112.195 29.9776C112.915 29.2577 113.822 28.6843 114.915 28.2576C116.035 27.8043 117.208 27.5777 118.435 27.5777C120.248 27.5777 121.862 28.0577 123.275 29.0177C124.688 29.951 125.795 31.2443 126.595 32.8977C127.422 34.5243 127.835 36.4177 127.835 38.5777C127.835 40.711 127.422 42.6043 126.595 44.2577C125.795 45.911 124.675 47.2177 123.235 48.1777C121.822 49.111 120.195 49.5777 118.355 49.5777C117.155 49.5777 116.008 49.351 114.915 48.8977C113.822 48.4443 112.902 47.831 112.155 47.0577C111.408 46.2843 110.915 45.4443 110.675 44.5377L112.155 43.9777V58.0177H105.715ZM116.795 44.1777C117.755 44.1777 118.595 43.951 119.315 43.4977C120.035 43.0177 120.595 42.3643 120.995 41.5377C121.395 40.711 121.595 39.7243 121.595 38.5777C121.595 37.4577 121.395 36.4843 120.995 35.6577C120.595 34.8043 120.035 34.151 119.315 33.6977C118.622 33.2177 117.782 32.9777 116.795 32.9777C115.808 32.9777 114.955 33.2043 114.235 33.6577C113.515 34.111 112.955 34.7643 112.555 35.6177C112.155 36.471 111.955 37.4577 111.955 38.5777C111.955 39.7243 112.155 40.711 112.555 41.5377C112.955 42.3643 113.515 43.0177 114.235 43.4977C114.955 43.951 115.808 44.1777 116.795 44.1777ZM139.922 49.5777C138.136 49.5777 136.536 49.111 135.122 48.1777C133.736 47.2177 132.629 45.911 131.802 44.2577C130.976 42.5777 130.562 40.6843 130.562 38.5777C130.562 36.4177 130.976 34.511 131.802 32.8577C132.629 31.2043 133.762 29.911 135.202 28.9776C136.642 28.0176 138.282 27.5376 140.122 27.5376C141.136 27.5376 142.056 27.6843 142.882 27.9777C143.736 28.271 144.482 28.6843 145.122 29.2177C145.762 29.7243 146.309 30.3243 146.762 31.0177C147.216 31.6843 147.549 32.4043 147.762 33.1777L146.442 33.0177V27.9777H152.802V49.2177H146.322V44.0977L147.762 44.0577C147.549 44.8043 147.202 45.511 146.722 46.1777C146.242 46.8443 145.656 47.431 144.962 47.9377C144.269 48.4443 143.496 48.8443 142.642 49.1377C141.789 49.431 140.882 49.5777 139.922 49.5777ZM141.682 44.1777C142.669 44.1777 143.522 43.951 144.242 43.4977C144.962 43.0443 145.522 42.4043 145.922 41.5777C146.322 40.7243 146.522 39.7243 146.522 38.5777C146.522 37.431 146.322 36.4443 145.922 35.6177C145.522 34.7643 144.962 34.111 144.242 33.6577C143.522 33.1777 142.669 32.9377 141.682 32.9377C140.722 32.9377 139.882 33.1777 139.162 33.6577C138.469 34.111 137.922 34.7643 137.522 35.6177C137.122 36.4443 136.922 37.431 136.922 38.5777C136.922 39.7243 137.122 40.7243 137.522 41.5777C137.922 42.4043 138.469 43.0443 139.162 43.4977C139.882 43.951 140.722 44.1777 141.682 44.1777ZM158.449 49.2177V27.9777H164.529L164.809 34.8977L163.609 33.5777C163.929 32.431 164.449 31.4043 165.169 30.4977C165.916 29.591 166.783 28.871 167.769 28.3377C168.756 27.8043 169.809 27.5376 170.929 27.5376C171.409 27.5376 171.849 27.5776 172.249 27.6576C172.676 27.7377 173.063 27.831 173.409 27.9377L171.649 35.0177C171.356 34.831 170.956 34.6843 170.449 34.5777C169.969 34.4443 169.463 34.3777 168.929 34.3777C168.343 34.3777 167.796 34.4843 167.289 34.6977C166.783 34.8843 166.356 35.1643 166.009 35.5377C165.663 35.911 165.383 36.351 165.169 36.8577C164.983 37.3643 164.889 37.9377 164.889 38.5777V49.2177H158.449ZM183.594 49.5777C181.807 49.5777 180.207 49.111 178.794 48.1777C177.407 47.2177 176.301 45.911 175.474 44.2577C174.647 42.5777 174.234 40.6843 174.234 38.5777C174.234 36.4177 174.647 34.511 175.474 32.8577C176.301 31.2043 177.434 29.911 178.874 28.9776C180.314 28.0176 181.954 27.5376 183.794 27.5376C184.807 27.5376 185.727 27.6843 186.554 27.9777C187.407 28.271 188.154 28.6843 188.794 29.2177C189.434 29.7243 189.981 30.3243 190.434 31.0177C190.887 31.6843 191.221 32.4043 191.434 33.1777L190.114 33.0177V27.9777H196.474V49.2177H189.994V44.0977L191.434 44.0577C191.221 44.8043 190.874 45.511 190.394 46.1777C189.914 46.8443 189.327 47.431 188.634 47.9377C187.941 48.4443 187.167 48.8443 186.314 49.1377C185.461 49.431 184.554 49.5777 183.594 49.5777ZM185.354 44.1777C186.341 44.1777 187.194 43.951 187.914 43.4977C188.634 43.0443 189.194 42.4043 189.594 41.5777C189.994 40.7243 190.194 39.7243 190.194 38.5777C190.194 37.431 189.994 36.4443 189.594 35.6177C189.194 34.7643 188.634 34.111 187.914 33.6577C187.194 33.1777 186.341 32.9377 185.354 32.9377C184.394 32.9377 183.554 33.1777 182.834 33.6577C182.141 34.111 181.594 34.7643 181.194 35.6177C180.794 36.4443 180.594 37.431 180.594 38.5777C180.594 39.7243 180.794 40.7243 181.194 41.5777C181.594 42.4043 182.141 43.0443 182.834 43.4977C183.554 43.951 184.394 44.1777 185.354 44.1777Z" fill="#3C78A0"/>
</svg>
